Amstelvar-Roman-XOPQ-min.ufo
<glyph name="numbersign" format="2">
  <advance width="1324"/>
  <unicode hex="0023"/>
  <outline>
    <contour>
      <point x="20.0" y="527" type="line"/>
      <point x="20.0" y="557" type="line"/>
      <point x="1199.0" y="557" type="line"/>
      <point x="1199.0" y="527" type="line"/>
    </contour>
    <contour>
      <point x="125.0" y="927" type="line"/>
      <point x="125.0" y="957" type="line"/>
      <point x="1304.0" y="957" type="line"/>
      <point x="1304.0" y="927" type="line"/>
    </contour>
    <contour>
      <point x="86" y="-57" type="line"/>
      <point x="677" y="1548" type="line"/>
      <point x="787" y="1518" type="line"/>
      <point x="196" y="-87" type="line"/>
    </contour>
    <contour>
      <point x="545" y="-57" type="line"/>
      <point x="1136" y="1548" type="line"/>
      <point x="1246" y="1518" type="line"/>
      <point x="655" y="-87" type="line"/>
    </contour>
  </outline>
</glyph>
<glyph name="dollar" format="2">
  <advance width="971"/>
  <unicode hex="0024"/>
  <outline>
    <contour>
      <point x="56" y="231" type="qcurve"/>
      <point x="168" y="304" type="line"/>
      <point x="200" y="262"/>
      <point x="379" y="122"/>
      <point x="546" y="122" type="qcurve" smooth="yes"/>
      <point x="691" y="122"/>
      <point x="881" y="265"/>
      <point x="881" y="405" type="qcurve" smooth="yes"/>
      <point x="881" y="544"/>
      <point x="705" y="715"/>
      <point x="531" y="788" type="qcurve" smooth="yes"/>
      <point x="340" y="868"/>
      <point x="195" y="1011"/>
      <point x="195" y="1156" type="qcurve" smooth="yes"/>
      <point x="195" y="1333"/>
      <point x="394" y="1501"/>
      <point x="526" y="1501" type="qcurve" smooth="yes"/>
      <point x="650" y="1501"/>
      <point x="852" y="1445"/>
      <point x="915" y="1401" type="qcurve"/>
      <point x="842" y="1295" type="line"/>
      <point x="800" y="1322"/>
      <point x="653" y="1371"/>
      <point x="529" y="1371" type="qcurve" smooth="yes"/>
      <point x="376" y="1371"/>
      <point x="227" y="1241"/>
      <point x="227" y="1146" type="qcurve" smooth="yes"/>
      <point x="227" y="1049"/>
      <point x="348" y="895"/>
      <point x="543" y="816" type="qcurve" smooth="yes"/>
      <point x="742" y="735"/>
      <point x="912" y="560"/>
      <point x="912" y="402" type="qcurve" smooth="yes"/>
      <point x="912" y="214"/>
      <point x="693" y="1"/>
      <point x="532" y="1" type="qcurve" smooth="yes"/>
      <point x="374" y="1"/>
      <point x="126" y="128"/>
    </contour>
    <contour>
      <point x="463" y="-190" type="line"/>
      <point x="463" y="52" type="line"/>
      <point x="483" y="52" type="line"/>
      <point x="483" y="820" type="line"/>
      <point x="607" y="778" type="line"/>
      <point x="607" y="52" type="line"/>
      <point x="629" y="52" type="line"/>
      <point x="629" y="-140" type="line"/>
    </contour>
    <contour>
      <point x="462" y="1570" type="line"/>
      <point x="628" y="1609" type="line"/>
      <point x="628" y="1418" type="line"/>
      <point x="607" y="1418" type="line"/>
      <point x="607" y="778" type="line"/>
      <point x="483" y="820" type="line"/>
      <point x="483" y="1418" type="line"/>
      <point x="462" y="1418" type="line"/>
    </contour>
  </outline>
</glyph>
<glyph name="percent" format="2">
  <advance width="1520"/>
  <unicode hex="0025"/>
  <outline>
    <contour>
      <point x="74" y="1081" type="qcurve" smooth="yes"/>
      <point x="74" y="1273"/>
      <point x="220" y="1522"/>
      <point x="338" y="1522" type="qcurve" smooth="yes"/>
      <point x="457" y="1522"/>
      <point x="605" y="1291"/>
      <point x="605" y="1087" type="qcurve" smooth="yes"/>
      <point x="605" y="896"/>
      <point x="460" y="641"/>
      <point x="341" y="641" type="qcurve" smooth="yes"/>
      <point x="222" y="641"/>
      <point x="74" y="876"/>
    </contour>
    <contour>
      <point x="110" y="1098" type="qcurve" smooth="yes"/>
      <point x="110" y="947"/>
      <point x="235" y="761"/>
      <point x="339" y="761" type="qcurve" smooth="yes"/>
      <point x="450" y="761"/>
      <point x="569" y="928"/>
      <point x="569" y="1087" type="qcurve" smooth="yes"/>
      <point x="569" y="1232"/>
      <point x="445" y="1398"/>
      <point x="340" y="1398" type="qcurve" smooth="yes"/>
      <point x="228" y="1398"/>
      <point x="109" y="1249"/>
    </contour>
    <contour>
      <point x="122" y="25" type="line"/>
      <point x="1281" y="1529" type="line"/>
      <point x="1383" y="1464" type="line"/>
      <point x="224" y="-40" type="line"/>
    </contour>
    <contour>
      <point x="915" y="390" type="qcurve" smooth="yes"/>
      <point x="915" y="582"/>
      <point x="1061" y="851"/>
      <point x="1179" y="851" type="qcurve" smooth="yes"/>
      <point x="1299" y="851"/>
      <point x="1446" y="600"/>
      <point x="1446" y="396" type="qcurve" smooth="yes"/>
      <point x="1446" y="225"/>
      <point x="1301" y="-30"/>
      <point x="1183" y="-30" type="qcurve" smooth="yes"/>
      <point x="1064" y="-30"/>
      <point x="915" y="205"/>
    </contour>
    <contour>
      <point x="951" y="407" type="qcurve" smooth="yes"/>
      <point x="951" y="276"/>
      <point x="1076" y="91"/>
      <point x="1180" y="91" type="qcurve" smooth="yes"/>
      <point x="1291" y="91"/>
      <point x="1410" y="257"/>
      <point x="1410" y="396" type="qcurve" smooth="yes"/>
      <point x="1410" y="541"/>
      <point x="1286" y="726"/>
      <point x="1181" y="726" type="qcurve" smooth="yes"/>
      <point x="1069" y="726"/>
      <point x="951" y="558"/>
    </contour>
  </outline>
</glyph>
<glyph name="parenright" format="2">
  <advance width="439"/>
  <unicode hex="0029"/>
  <outline>
    <contour>
      <point x="371" y="672" type="qcurve" smooth="yes"/>
      <point x="371" y="411"/>
      <point x="203" y="-87"/>
      <point x="89" y="-182" type="qcurve"/>
      <point x="20" y="-120" type="line"/>
      <point x="148" y="6"/>
      <point x="335" y="436"/>
      <point x="335" y="672" type="qcurve" smooth="yes"/>
      <point x="335" y="908"/>
      <point x="144" y="1334"/>
      <point x="20" y="1464" type="qcurve"/>
      <point x="89" y="1526" type="line"/>
      <point x="203" y="1409"/>
      <point x="371" y="923"/>
    </contour>
  </outline>
</glyph>
<glyph name="comma" format="2">
  <advance width="584"/>
  <unicode hex="002C"/>
  <outline>
    <contour>
      <point x="133" y="-220" type="line"/>
      <point x="171" y="-191"/>
      <point x="277" y="-81"/>
      <point x="295" y="-13" type="qcurve" smooth="yes"/>
      <point x="306" y="27"/>
      <point x="313" y="74"/>
      <point x="313" y="133" type="qcurve" smooth="yes"/>
      <point x="313" y="191"/>
      <point x="329" y="256"/>
      <point x="364" y="256" type="qcurve" smooth="yes"/>
      <point x="406" y="256"/>
      <point x="436" y="189"/>
      <point x="436" y="112" type="qcurve" smooth="yes"/>
      <point x="436" y="-10"/>
      <point x="281" y="-218"/>
      <point x="183" y="-277" type="qcurve"/>
    </contour>
  </outline>
</glyph>
<glyph name="period" format="2">
  <advance width="452"/>
  <unicode hex="002E"/>
  <outline>
    <contour>
      <point x="148" y="55" type="qcurve" smooth="yes"/>
      <point x="148" y="87"/>
      <point x="192" y="133"/>
      <point x="226" y="133" type="qcurve" smooth="yes"/>
      <point x="260" y="133"/>
      <point x="304" y="87"/>
      <point x="304" y="55" type="qcurve" smooth="yes"/>
      <point x="304" y="24"/>
      <point x="260" y="-22"/>
      <point x="226" y="-22" type="qcurve" smooth="yes"/>
      <point x="192" y="-22"/>
      <point x="148" y="24"/>
    </contour>
  </outline>
</glyph>
<glyph name="semicolon" format="2">
  <advance width="669"/>
  <unicode hex="003B"/>
  <outline>
    <contour>
      <point x="180" y="-220" type="line"/>
      <point x="218" y="-191"/>
      <point x="324" y="-81"/>
      <point x="339" y="-24" type="qcurve" smooth="yes"/>
      <point x="353" y="27"/>
      <point x="360" y="74"/>
      <point x="360" y="133" type="qcurve" smooth="yes"/>
      <point x="360" y="191"/>
      <point x="376" y="256"/>
      <point x="411" y="256" type="qcurve" smooth="yes"/>
      <point x="453" y="256"/>
      <point x="483" y="189"/>
      <point x="483" y="112" type="qcurve" smooth="yes"/>
      <point x="483" y="-10"/>
      <point x="328" y="-218"/>
      <point x="230" y="-277" type="qcurve"/>
    </contour>
    <contour>
      <point x="333" y="960" type="qcurve" smooth="yes"/>
      <point x="333" y="992"/>
      <point x="377" y="1038"/>
      <point x="411" y="1038" type="qcurve" smooth="yes"/>
      <point x="445" y="1038"/>
      <point x="489" y="992"/>
      <point x="489" y="960" type="qcurve" smooth="yes"/>
      <point x="489" y="929"/>
      <point x="445" y="883"/>
      <point x="411" y="883" type="qcurve" smooth="yes"/>
      <point x="377" y="883"/>
      <point x="333" y="929"/>
    </contour>
  </outline>
</glyph>
<glyph name="C" format="2">
  <advance width="1246"/>
  <unicode hex="0043"/>
  <outline>
    <contour>
      <point x="80" y="700" type="qcurve" smooth="yes"/>
      <point x="80" y="1066"/>
      <point x="402" y="1520"/>
      <point x="680" y="1520" type="qcurve" smooth="yes"/>
      <point x="738" y="1520"/>
      <point x="900" y="1478"/>
      <point x="1018" y="1407" type="qcurve"/>
      <point x="1050" y="1487" type="line"/>
      <point x="1156" y="1487" type="line"/>
      <point x="1156" y="1031" type="line"/>
      <point x="1038" y="1031" type="line"/>
      <point x="1012" y="1170" type="line" smooth="yes"/>
      <point x="991" y="1287"/>
      <point x="829" y="1392"/>
      <point x="683" y="1392" type="qcurve" smooth="yes"/>
      <point x="411" y="1392"/>
      <point x="117" y="1042"/>
      <point x="118" y="762" type="qcurve" smooth="yes"/>
      <point x="120" y="462"/>
      <point x="433" y="114"/>
      <point x="693" y="114" type="qcurve" smooth="yes"/>
      <point x="885" y="114"/>
      <point x="1080" y="248"/>
      <point x="1124" y="302" type="qcurve"/>
      <point x="1220" y="224" type="line"/>
      <point x="1117" y="100"/>
      <point x="836" y="-30"/>
      <point x="695" y="-30" type="qcurve" smooth="yes"/>
      <point x="439" y="-30"/>
      <point x="80" y="352"/>
    </contour>
  </outline>
</glyph>
<glyph name="G" format="2">
  <advance width="1253"/>
  <unicode hex="0047"/>
  <outline>
    <contour>
      <point x="80" y="744" type="qcurve" smooth="yes"/>
      <point x="80" y="1088"/>
      <point x="423" y="1520"/>
      <point x="669" y="1520" type="qcurve" smooth="yes"/>
      <point x="783" y="1520"/>
      <point x="954" y="1460"/>
      <point x="1016" y="1415" type="qcurve"/>
      <point x="1042" y="1487" type="line"/>
      <point x="1151" y="1487" type="line"/>
      <point x="1151" y="1041" type="line"/>
      <point x="1037" y="1041" type="line"/>
      <point x="1011" y="1165" type="line" smooth="yes"/>
      <point x="986" y="1284"/>
      <point x="824" y="1384"/>
      <point x="671" y="1384" type="qcurve" smooth="yes"/>
      <point x="398" y="1384"/>
      <point x="117" y="1037"/>
      <point x="119" y="810" type="qcurve" smooth="yes"/>
      <point x="120" y="496"/>
      <point x="414" y="95"/>
      <point x="699" y="95" type="qcurve" smooth="yes"/>
      <point x="834" y="95"/>
      <point x="1026" y="177"/>
      <point x="1090" y="244" type="qcurve"/>
      <point x="1090" y="519" type="line"/>
      <point x="910" y="554" type="line"/>
      <point x="910" y="658" type="line"/>
      <point x="1257" y="658" type="line"/>
      <point x="1257" y="552" type="line"/>
      <point x="1126" y="517" type="line"/>
      <point x="1126" y="196" type="line"/>
      <point x="1083" y="127"/>
      <point x="836" y="-30"/>
      <point x="685" y="-30" type="qcurve" smooth="yes"/>
      <point x="429" y="-30"/>
      <point x="80" y="375"/>
    </contour>
  </outline>
</glyph>
<glyph name="K" format="2">
  <advance width="1217"/>
  <unicode hex="004B"/>
  <outline>
    <contour>
      <point x="82" y="0" type="line"/>
      <point x="82" y="100" type="line"/>
      <point x="290" y="135" type="line"/>
      <point x="292" y="714" type="line"/>
      <point x="290" y="1352" type="line"/>
      <point x="82" y="1386" type="line"/>
      <point x="82" y="1500" type="line"/>
      <point x="528" y="1500" type="line"/>
      <point x="528" y="1386" type="line"/>
      <point x="330" y="1352" type="line"/>
      <point x="328" y="714" type="line"/>
      <point x="330" y="135" type="line"/>
      <point x="538" y="100" type="line"/>
      <point x="538" y="0" type="line"/>
    </contour>
    <contour>
      <point x="311.0" y="555.0" type="line"/>
      <point x="311.0" y="708.0" type="line"/>
      <point x="901.0" y="1338.0" type="line"/>
      <point x="754.0" y="1386.0" type="line"/>
      <point x="754.0" y="1502.0" type="line"/>
      <point x="1250.0" y="1502.0" type="line"/>
      <point x="1250.0" y="1386.0" type="line"/>
      <point x="1072.0" y="1338.0" type="line"/>
      <point x="582.0" y="834.0" type="line"/>
      <point x="565.0" y="817.0" type="line"/>
    </contour>
    <contour>
      <point x="533" y="847" type="line"/>
      <point x="564" y="878" type="line"/>
      <point x="1095" y="135" type="line"/>
      <point x="1252" y="100" type="line"/>
      <point x="1252" y="0" type="line"/>
      <point x="877" y="0" type="line"/>
      <point x="877" y="100" type="line"/>
      <point x="1045" y="135" type="line"/>
    </contour>
  </outline>
</glyph>
<glyph name="N" format="2">
  <advance width="1520"/>
  <unicode hex="004E"/>
  <outline>
    <contour>
      <point x="82.0" y="0.0" type="line"/>
      <point x="82.0" y="100.0" type="line"/>
      <point x="290.0" y="135.0" type="line"/>
      <point x="292.0" y="754.0" type="line"/>
      <point x="290.0" y="1352.0" type="line"/>
      <point x="82.0" y="1386.0" type="line"/>
      <point x="82.0" y="1500.0" type="line"/>
      <point x="408.0" y="1500.0" type="line"/>
      <point x="799.0" y="788.0" type="line"/>
      <point x="1110.0" y="222.0" type="line"/>
      <point x="1112.0" y="754.0" type="line"/>
      <point x="1110.0" y="1352.0" type="line"/>
      <point x="882.0" y="1386.0" type="line"/>
      <point x="882.0" y="1500.0" type="line"/>
      <point x="1438.0" y="1500.0" type="line"/>
      <point x="1438.0" y="1386.0" type="line"/>
      <point x="1230.0" y="1352.0" type="line"/>
      <point x="1228.0" y="754.0" type="line"/>
      <point x="1224.0" y="0.0" type="line"/>
      <point x="1202.0" y="0.0" type="line"/>
      <point x="770.0" y="768.0" type="line"/>
      <point x="410.0" y="1409.0" type="line"/>
      <point x="408.0" y="754.0" type="line"/>
      <point x="410.0" y="135.0" type="line"/>
      <point x="628.0" y="100.0" type="line"/>
      <point x="628.0" y="0.0" type="line"/>
    </contour>
  </outline>
</glyph>
<glyph name="V" format="2">
  <advance width="1266"/>
  <unicode hex="0056"/>
  <outline>
    <contour>
      <point x="-30" y="1386" type="line"/>
      <point x="-30" y="1500" type="line"/>
      <point x="354" y="1500" type="line"/>
      <point x="354" y="1386" type="line"/>
      <point x="186" y="1345" type="line"/>
      <point x="373" y="798" type="line"/>
      <point x="577" y="209" type="line"/>
      <point x="796" y="805" type="line"/>
      <point x="997" y="1352" type="line"/>
      <point x="810" y="1386" type="line"/>
      <point x="810" y="1500" type="line"/>
      <point x="1316" y="1500" type="line"/>
      <point x="1316" y="1386" type="line"/>
      <point x="1138" y="1347" type="line"/>
      <point x="912" y="754" type="line"/>
      <point x="624" y="-8" type="line"/>
      <point x="602" y="-8" type="line"/>
      <point x="332" y="780" type="line"/>
      <point x="138" y="1347" type="line"/>
    </contour>
  </outline>
</glyph>
<glyph name="W" format="2">
  <advance width="1892"/>
  <unicode hex="0057"/>
  <outline>
    <contour>
      <point x="-30" y="1386" type="line"/>
      <point x="-30" y="1500" type="line"/>
      <point x="364" y="1500" type="line"/>
      <point x="364" y="1386" type="line"/>
      <point x="176" y="1345" type="line"/>
      <point x="402" y="753" type="line"/>
      <point x="604" y="216" type="line"/>
      <point x="742" y="589" type="line"/>
      <point x="905" y="1076" type="line"/>
      <point x="967" y="911" type="line"/>
      <point x="845" y="540" type="line"/>
      <point x="649" y="-8" type="line"/>
      <point x="634" y="-8" type="line"/>
      <point x="365" y="740" type="line"/>
      <point x="138" y="1347" type="line"/>
    </contour>
    <contour>
      <point x="618" y="1394" type="line"/>
      <point x="618" y="1500" type="line"/>
      <point x="992" y="1500" type="line"/>
      <point x="992" y="1394" type="line"/>
      <point x="824" y="1353" type="line"/>
      <point x="1039" y="754" type="line"/>
      <point x="1225" y="203" type="line"/>
      <point x="1430" y="803" type="line"/>
      <point x="1613" y="1352" type="line"/>
      <point x="1416" y="1386" type="line"/>
      <point x="1416" y="1500" type="line"/>
      <point x="1952" y="1500" type="line"/>
      <point x="1952" y="1386" type="line"/>
      <point x="1764" y="1347" type="line"/>
      <point x="1546" y="760" type="line"/>
      <point x="1271" y="-8" type="line"/>
      <point x="1249" y="-8" type="line"/>
      <point x="1001" y="735" type="line"/>
      <point x="786" y="1355" type="line"/>
    </contour>
  </outline>
</glyph>
<glyph name="X" format="2">
  <advance width="1256"/>
  <unicode hex="0058"/>
  <outline>
    <contour>
      <point x="-20.0" y="0.0" type="line"/>
      <point x="-20.0" y="100.0" type="line"/>
      <point x="148.0" y="135.0" type="line"/>
      <point x="619" y="848" type="line"/>
      <point x="628" y="862" type="line"/>
      <point x="957.0" y="1360.0" type="line"/>
      <point x="780.0" y="1386.0" type="line"/>
      <point x="780.0" y="1500.0" type="line"/>
      <point x="1286.0" y="1500.0" type="line"/>
      <point x="1286.0" y="1386.0" type="line"/>
      <point x="1108.0" y="1355.0" type="line"/>
      <point x="707" y="747" type="line"/>
      <point x="698" y="733" type="line"/>
      <point x="299.0" y="130.0" type="line"/>
      <point x="476.0" y="100.0" type="line"/>
      <point x="476.0" y="0.0" type="line"/>
    </contour>
    <contour>
      <point x="110.0" y="1386.0" type="line"/>
      <point x="110.0" y="1500.0" type="line"/>
      <point x="484.0" y="1500.0" type="line"/>
      <point x="484.0" y="1386.0" type="line"/>
      <point x="311.0" y="1353.0" type="line"/>
      <point x="678" y="806" type="line"/>
      <point x="1128.0" y="135.0" type="line"/>
      <point x="1296.0" y="100.0" type="line"/>
      <point x="1296.0" y="0.0" type="line"/>
      <point x="912.0" y="0.0" type="line"/>
      <point x="912.0" y="100.0" type="line"/>
      <point x="1085.0" y="135.0" type="line"/>
      <point x="650" y="784" type="line"/>
      <point x="268.0" y="1355.0" type="line"/>
    </contour>
  </outline>
</glyph>
<glyph name="Y" format="2">
  <advance width="1194"/>
  <unicode hex="0059"/>
  <outline>
    <contour>
      <point x="-30.0" y="1386.0" type="line"/>
      <point x="-30.0" y="1500.0" type="line"/>
      <point x="355.0" y="1500.0" type="line"/>
      <point x="355.0" y="1386.0" type="line"/>
      <point x="198.0" y="1351.0" type="line"/>
      <point x="395" y="1016" type="line"/>
      <point x="564.0" y="737.0" type="line"/>
      <point x="755.0" y="1078.0" type="line"/>
      <point x="902.0" y="1358.0" type="line"/>
      <point x="715.0" y="1386.0" type="line"/>
      <point x="715.0" y="1500.0" type="line"/>
      <point x="1224.0" y="1500.0" type="line"/>
      <point x="1224.0" y="1386.0" type="line"/>
      <point x="1056.0" y="1359.0" type="line"/>
      <point x="851.0" y="1011.0" type="line"/>
      <point x="591.0" y="553.0" type="line"/>
      <point x="593.0" y="135.0" type="line"/>
      <point x="811.0" y="100.0" type="line"/>
      <point x="811.0" y="0.0" type="line"/>
      <point x="334.0" y="0.0" type="line"/>
      <point x="334.0" y="100.0" type="line"/>
      <point x="555.0" y="135.0" type="line"/>
      <point x="557.0" y="647.0" type="line"/>
      <point x="356" y="989" type="line"/>
      <point x="132.0" y="1360.0" type="line"/>
    </contour>
  </outline>
</glyph>
<glyph name="c" format="2">
  <advance width="830"/>
  <unicode hex="0063"/>
  <outline>
    <contour>
      <point x="64" y="503" type="qcurve" smooth="yes"/>
      <point x="64" y="714"/>
      <point x="253" y="1022"/>
      <point x="421" y="1022" type="qcurve" smooth="yes"/>
      <point x="487" y="1022"/>
      <point x="581" y="969"/>
      <point x="604" y="931" type="qcurve"/>
      <point x="653" y="1019" type="line"/>
      <point x="741" y="990" type="line"/>
      <point x="757" y="664" type="line"/>
      <point x="659" y="647" type="line"/>
      <point x="640" y="715" type="line" smooth="yes"/>
      <point x="618" y="794"/>
      <point x="482" y="911"/>
      <point x="408" y="911" type="qcurve" smooth="yes"/>
      <point x="269" y="911"/>
      <point x="100" y="711"/>
      <point x="100" y="517" type="qcurve" smooth="yes"/>
      <point x="100" y="315"/>
      <point x="300" y="108"/>
      <point x="457" y="108" type="qcurve" smooth="yes"/>
      <point x="567" y="108"/>
      <point x="716" y="177"/>
      <point x="771" y="228" type="qcurve"/>
      <point x="822" y="168" type="line"/>
      <point x="777" y="107"/>
      <point x="587" y="-22"/>
      <point x="460" y="-22" type="qcurve" smooth="yes"/>
      <point x="293" y="-22"/>
      <point x="64" y="256"/>
    </contour>
  </outline>
</glyph>
<glyph name="i" format="2">
  <advance width="509"/>
  <unicode hex="0069"/>
  <outline>
    <contour>
      <point x="77" y="0" type="line"/>
      <point x="77" y="80" type="line"/>
      <point x="245" y="115" type="line"/>
      <point x="247" y="527" type="line"/>
      <point x="240" y="842" type="line"/>
      <point x="72" y="872" type="line"/>
      <point x="72" y="966" type="line"/>
      <point x="220" y="1000" type="line"/>
      <point x="267" y="1000" type="line"/>
      <point x="290" y="961" type="line"/>
      <point x="283" y="527" type="line"/>
      <point x="285" y="115" type="line"/>
      <point x="453" y="80" type="line"/>
      <point x="453" y="0" type="line"/>
    </contour>
    <contour>
      <point x="166" y="1328" type="qcurve" smooth="yes"/>
      <point x="166" y="1362"/>
      <point x="203" y="1399"/>
      <point x="237" y="1399" type="qcurve" smooth="yes"/>
      <point x="270" y="1399"/>
      <point x="309" y="1360"/>
      <point x="309" y="1328" type="qcurve" smooth="yes"/>
      <point x="309" y="1293"/>
      <point x="272" y="1256"/>
      <point x="237" y="1256" type="qcurve" smooth="yes"/>
      <point x="205" y="1256"/>
      <point x="166" y="1295"/>
    </contour>
  </outline>
</glyph>
<glyph name="m" format="2">
  <advance width="1530"/>
  <unicode hex="006D"/>
  <outline>
    <contour>
      <point x="76" y="0" type="line"/>
      <point x="76" y="80" type="line"/>
      <point x="224" y="115" type="line"/>
      <point x="226" y="527" type="line"/>
      <point x="224" y="842" type="line"/>
      <point x="76" y="872" type="line"/>
      <point x="76" y="966" type="line"/>
      <point x="203" y="1000" type="line"/>
      <point x="238" y="973" type="line"/>
      <point x="263" y="854" type="line"/>
      <point x="307" y="928"/>
      <point x="454" y="1021"/>
      <point x="536" y="1021" type="qcurve" smooth="yes"/>
      <point x="636" y="1021"/>
      <point x="758" y="926"/>
      <point x="774" y="840" type="qcurve"/>
      <point x="810" y="920"/>
      <point x="971" y="1021"/>
      <point x="1056" y="1021" type="qcurve" smooth="yes"/>
      <point x="1180" y="1021"/>
      <point x="1313" y="872"/>
      <point x="1313" y="742" type="qcurve" smooth="yes"/>
      <point x="1313" y="668"/>
      <point x="1313" y="527"/>
      <point x="1313" y="527" type="qcurve"/>
      <point x="1316" y="115" type="line"/>
      <point x="1464" y="80" type="line"/>
      <point x="1464" y="0" type="line"/>
      <point x="1118" y="0" type="line"/>
      <point x="1118" y="80" type="line"/>
      <point x="1277" y="115" type="line"/>
      <point x="1277" y="527" type="line"/>
      <point x="1278" y="702" type="line" smooth="yes"/>
      <point x="1278" y="780"/>
      <point x="1166" y="877"/>
      <point x="1075" y="877" type="qcurve" smooth="yes"/>
      <point x="986" y="877"/>
      <point x="835" y="798"/>
      <point x="787" y="731" type="qcurve"/>
      <point x="787" y="659"/>
      <point x="787" y="527"/>
      <point x="787" y="527" type="qcurve"/>
      <point x="790" y="115" type="line"/>
      <point x="940" y="80" type="line"/>
      <point x="940" y="0" type="line"/>
      <point x="591" y="0" type="line"/>
      <point x="591" y="80" type="line"/>
      <point x="751" y="115" type="line"/>
      <point x="751" y="527" type="line"/>
      <point x="751" y="702" type="line" smooth="yes"/>
      <point x="751" y="780"/>
      <point x="638" y="877"/>
      <point x="554" y="877" type="qcurve" smooth="yes"/>
      <point x="465" y="877"/>
      <point x="310" y="795"/>
      <point x="262" y="725" type="qcurve"/>
      <point x="261" y="527" type="line"/>
      <point x="263" y="115" type="line"/>
      <point x="401" y="80" type="line"/>
      <point x="401" y="0" type="line"/>
    </contour>
  </outline>
</glyph>
<glyph name="s" format="2">
  <advance width="812"/>
  <unicode hex="0073"/>
  <outline>
    <contour>
      <point x="52" y="0" type="line"/>
      <point x="52" y="339" type="line"/>
      <point x="159" y="339" type="line"/>
      <point x="170" y="280" type="line" smooth="yes"/>
      <point x="186" y="194"/>
      <point x="330" y="88"/>
      <point x="445" y="88" type="qcurve" smooth="yes"/>
      <point x="545" y="88"/>
      <point x="670" y="177"/>
      <point x="670" y="278" type="qcurve" smooth="yes"/>
      <point x="670" y="368"/>
      <point x="550" y="481"/>
      <point x="388" y="537" type="qcurve" smooth="yes"/>
      <point x="226" y="593"/>
      <point x="102" y="693"/>
      <point x="102" y="789" type="qcurve" smooth="yes"/>
      <point x="102" y="897"/>
      <point x="251" y="1032"/>
      <point x="364" y="1032" type="qcurve" smooth="yes"/>
      <point x="441" y="1032"/>
      <point x="549" y="992"/>
      <point x="587" y="969" type="qcurve"/>
      <point x="601" y="1000" type="line"/>
      <point x="692" y="1000" type="line"/>
      <point x="692" y="704" type="line"/>
      <point x="586" y="704" type="line"/>
      <point x="565" y="817" type="line" smooth="yes"/>
      <point x="557" y="861"/>
      <point x="450" y="921"/>
      <point x="368" y="921" type="qcurve" smooth="yes"/>
      <point x="277" y="921"/>
      <point x="194" y="838"/>
      <point x="194" y="779" type="qcurve" smooth="yes"/>
      <point x="194" y="717"/>
      <point x="294" y="610"/>
      <point x="447" y="557" type="qcurve" smooth="yes"/>
      <point x="599" y="504"/>
      <point x="764" y="383"/>
      <point x="764" y="273" type="qcurve" smooth="yes"/>
      <point x="764" y="150"/>
      <point x="590" y="-23"/>
      <point x="469" y="-23" type="qcurve" smooth="yes"/>
      <point x="373" y="-23"/>
      <point x="236" y="29"/>
      <point x="182" y="73" type="qcurve"/>
      <point x="143" y="0" type="line"/>
    </contour>
  </outline>
</glyph>
<glyph name="y" format="2">
  <advance width="958"/>
  <unicode hex="0079"/>
  <outline>
    <contour>
      <point x="-10" y="910" type="line"/>
      <point x="-10" y="1000" type="line"/>
      <point x="295" y="1000" type="line"/>
      <point x="295" y="910" type="line"/>
      <point x="162" y="873" type="line"/>
      <point x="298" y="511" type="line"/>
      <point x="442" y="140" type="line"/>
      <point x="588" y="538" type="line"/>
      <point x="709" y="880" type="line"/>
      <point x="572" y="910" type="line"/>
      <point x="572" y="1000" type="line"/>
      <point x="988" y="1000" type="line"/>
      <point x="988" y="910" type="line"/>
      <point x="840" y="875" type="line"/>
      <point x="692" y="497" type="line"/>
      <point x="402" y="-287" type="line" smooth="yes"/>
      <point x="360" y="-398"/>
      <point x="218" y="-492"/>
      <point x="129" y="-492" type="qcurve"/>
      <point x="-29" y="-460" type="line"/>
      <point x="-29" y="-370" type="line"/>
      <point x="72" y="-370" type="line" smooth="yes"/>
      <point x="126" y="-370"/>
      <point x="273" y="-308"/>
      <point x="315" y="-195" type="qcurve" smooth="yes"/>
      <point x="417" y="69" type="line"/>
      <point x="264" y="491" type="line"/>
      <point x="108" y="875" type="line"/>
    </contour>
  </outline>
</glyph>
<glyph name="z" format="2">
  <advance width="735"/>
  <unicode hex="007A"/>
  <outline>
    <contour>
      <point x="32" y="0" type="line"/>
      <point x="32" y="90" type="line"/>
      <point x="618" y="884" type="line"/>
      <point x="195" y="884" type="line"/>
      <point x="168" y="740" type="line"/>
      <point x="60" y="740" type="line"/>
      <point x="60" y="1000" type="line"/>
      <point x="685" y="1000" type="line"/>
      <point x="685" y="911" type="line"/>
      <point x="98" y="116" type="line"/>
      <point x="566" y="116" type="line"/>
      <point x="593" y="260" type="line"/>
      <point x="701" y="260" type="line"/>
      <point x="701" y="0" type="line"/>
    </contour>
  </outline>
</glyph>
<glyph name="braceright" format="2">
  <advance width="549"/>
  <unicode hex="007D"/>
  <outline>
    <contour>
      <point x="15" y="-484" type="qcurve"/>
      <point x="15" y="-372" type="line"/>
      <point x="67" y="-374"/>
      <point x="130" y="-374"/>
      <point x="179" y="-374" type="qcurve" smooth="yes"/>
      <point x="261" y="-374"/>
      <point x="357" y="-278"/>
      <point x="357" y="-180" type="qcurve" smooth="yes"/>
      <point x="357" y="-78"/>
      <point x="241" y="223"/>
      <point x="241" y="314" type="qcurve" smooth="yes"/>
      <point x="241" y="384"/>
      <point x="287" y="519"/>
      <point x="357" y="550" type="qcurve"/>
      <point x="306" y="571"/>
      <point x="241" y="676"/>
      <point x="241" y="754" type="qcurve" smooth="yes"/>
      <point x="241" y="862"/>
      <point x="327" y="1094"/>
      <point x="327" y="1196" type="qcurve" smooth="yes"/>
      <point x="327" y="1294"/>
      <point x="236" y="1388"/>
      <point x="154" y="1388" type="qcurve" smooth="yes"/>
      <point x="105" y="1388"/>
      <point x="62" y="1388"/>
      <point x="10" y="1386" type="qcurve"/>
      <point x="10" y="1500" type="line"/>
      <point x="47" y="1503"/>
      <point x="109" y="1510"/>
      <point x="151" y="1510" type="qcurve" smooth="yes"/>
      <point x="256" y="1510"/>
      <point x="363" y="1343"/>
      <point x="363" y="1208" type="qcurve" smooth="yes"/>
      <point x="363" y="1066"/>
      <point x="277" y="834"/>
      <point x="277" y="743" type="qcurve" smooth="yes"/>
      <point x="277" y="683"/>
      <point x="330" y="603"/>
      <point x="372" y="599" type="qcurve" smooth="yes"/>
      <point x="489" y="589" type="line"/>
      <point x="489" y="481" type="line"/>
      <point x="312" y="481" type="line"/>
      <point x="281" y="364" type="line"/>
      <point x="281" y="246"/>
      <point x="393" y="-50"/>
      <point x="393" y="-194" type="qcurve" smooth="yes"/>
      <point x="393" y="-327"/>
      <point x="272" y="-495"/>
      <point x="177" y="-495" type="qcurve" smooth="yes"/>
      <point x="134" y="-495"/>
      <point x="52" y="-487"/>
    </contour>
  </outline>
</glyph>
<glyph name="germandbls" format="2">
  <advance width="1134"/>
  <unicode hex="00DF"/>
  <outline>
    <contour>
      <point x="885" y="1222" type="qcurve" smooth="yes"/>
      <point x="885" y="1096"/>
      <point x="748" y="958"/>
      <point x="654" y="919" type="qcurve" smooth="yes"/>
      <point x="574" y="886"/>
      <point x="480" y="835"/>
      <point x="480" y="775" type="qcurve" smooth="yes"/>
      <point x="480" y="706"/>
      <point x="664" y="626"/>
      <point x="795" y="587" type="qcurve" smooth="yes"/>
      <point x="956" y="539"/>
      <point x="1101" y="401"/>
      <point x="1101" y="295" type="qcurve" smooth="yes"/>
      <point x="1101" y="155"/>
      <point x="937" y="-23"/>
      <point x="819" y="-23" type="qcurve" smooth="yes"/>
      <point x="723" y="-23"/>
      <point x="597" y="31"/>
      <point x="542" y="73" type="qcurve"/>
      <point x="503" y="0" type="line"/>
      <point x="412" y="0" type="line"/>
      <point x="412" y="339" type="line"/>
      <point x="519" y="339" type="line"/>
      <point x="530" y="280" type="line" smooth="yes"/>
      <point x="546" y="194"/>
      <point x="697" y="88"/>
      <point x="795" y="88" type="qcurve" smooth="yes"/>
      <point x="875" y="88"/>
      <point x="1000" y="195"/>
      <point x="1000" y="278" type="qcurve" smooth="yes"/>
      <point x="1000" y="362"/>
      <point x="902" y="495"/>
      <point x="769" y="535" type="qcurve" smooth="yes"/>
      <point x="595" y="587"/>
      <point x="409" y="687"/>
      <point x="409" y="787" type="qcurve" smooth="yes"/>
      <point x="409" y="879"/>
      <point x="511" y="980"/>
      <point x="604" y="1022" type="qcurve" smooth="yes"/>
      <point x="680" y="1056"/>
      <point x="754" y="1138"/>
      <point x="754" y="1213" type="qcurve" smooth="yes"/>
      <point x="754" y="1296"/>
      <point x="651" y="1405"/>
      <point x="571" y="1405" type="qcurve" smooth="yes"/>
      <point x="421" y="1405"/>
      <point x="251" y="1244"/>
      <point x="253" y="1069" type="qcurve"/>
      <point x="257" y="527" type="line"/>
      <point x="270" y="31" type="line"/>
      <point x="241" y="-14" type="line"/>
      <point x="54" y="0" type="line"/>
      <point x="54" y="80" type="line"/>
      <point x="222" y="115" type="line"/>
      <point x="224" y="527" type="line"/>
      <point x="215" y="1104" type="line" smooth="yes"/>
      <point x="212" y="1284"/>
      <point x="430" y="1518"/>
      <point x="579" y="1518" type="qcurve" smooth="yes"/>
      <point x="712" y="1518"/>
      <point x="885" y="1354"/>
    </contour>
  </outline>
</glyph>
<glyph name="OE" format="2">
  <advance width="1737"/>
  <unicode hex="0152"/>
  <outline>
    <contour>
      <point x="80" y="737" type="qcurve" smooth="yes"/>
      <point x="80" y="1068"/>
      <point x="402" y="1518"/>
      <point x="677" y="1518" type="qcurve" smooth="yes"/>
      <point x="726" y="1518"/>
      <point x="996" y="1500"/>
      <point x="1056" y="1500" type="qcurve" smooth="yes"/>
      <point x="1613" y="1500" type="line"/>
      <point x="1613" y="1152" type="line"/>
      <point x="1503" y="1152" type="line"/>
      <point x="1468" y="1382" type="line"/>
      <point x="1005" y="1382" type="line"/>
      <point x="976" y="1362" type="line"/>
      <point x="974" y="783" type="line"/>
      <point x="976" y="132" type="line"/>
      <point x="1006" y="108" type="line"/>
      <point x="1531" y="108" type="line"/>
      <point x="1607" y="378" type="line"/>
      <point x="1717" y="378" type="line"/>
      <point x="1677" y="0" type="line"/>
      <point x="977" y="0" type="line" smooth="yes"/>
      <point x="914" y="0"/>
      <point x="749" y="-26"/>
      <point x="680" y="-26" type="qcurve" smooth="yes"/>
      <point x="412" y="-26"/>
      <point x="80" y="396"/>
    </contour>
    <contour>
      <point x="117" y="771" type="qcurve" smooth="yes"/>
      <point x="117" y="478"/>
      <point x="410" y="97"/>
      <point x="660" y="97" type="qcurve" smooth="yes"/>
      <point x="738" y="97"/>
      <point x="878" y="112"/>
      <point x="936" y="127" type="qcurve"/>
      <point x="938" y="783" type="line"/>
      <point x="936" y="1360" type="line"/>
      <point x="898" y="1366"/>
      <point x="735" y="1388"/>
      <point x="660" y="1388" type="qcurve" smooth="yes"/>
      <point x="387" y="1388"/>
      <point x="117" y="1053"/>
    </contour>
    <contour>
      <point x="957" y="738" type="line"/>
      <point x="957" y="834" type="line"/>
      <point x="1322" y="844" type="line"/>
      <point x="1357" y="1004" type="line"/>
      <point x="1467" y="1004" type="line"/>
      <point x="1467" y="568" type="line"/>
      <point x="1357" y="568" type="line"/>
      <point x="1322" y="728" type="line"/>
    </contour>
  </outline>
</glyph>
<glyph name="schwa" format="2">
  <advance width="744"/>
  <unicode hex="0259"/>
  <outline>
    <contour>
      <point x="680" y="515" type="qcurve" smooth="yes"/>
      <point x="680" y="284"/>
      <point x="493" y="-21"/>
      <point x="343" y="-21" type="qcurve" smooth="yes"/>
      <point x="225" y="-21"/>
      <point x="53" y="209"/>
      <point x="38" y="414" type="qcurve"/>
      <point x="38" y="474" type="line"/>
      <point x="672" y="474" type="line"/>
      <point x="672" y="378" type="line"/>
      <point x="78" y="378" type="line"/>
      <point x="96" y="239"/>
      <point x="243" y="94"/>
      <point x="355" y="94" type="qcurve" smooth="yes"/>
      <point x="493" y="94"/>
      <point x="645" y="302"/>
      <point x="644" y="482" type="qcurve" smooth="yes"/>
      <point x="643" y="683"/>
      <point x="445" y="894"/>
      <point x="326" y="894" type="qcurve" smooth="yes"/>
      <point x="227" y="894"/>
      <point x="116" y="851"/>
      <point x="79" y="814" type="qcurve"/>
      <point x="27" y="874" type="line"/>
      <point x="69" y="937"/>
      <point x="222" y="1023"/>
      <point x="314" y="1023" type="qcurve" smooth="yes"/>
      <point x="484" y="1023"/>
      <point x="680" y="752"/>
    </contour>
  </outline>
</glyph>
<glyph name="Germandbls" format="2">
  <advance width="1183"/>
  <unicode hex="1E9E"/>
  <outline>
    <contour>
      <point x="156" y="760" type="line"/>
      <point x="154" y="1072" type="line" smooth="yes"/>
      <point x="152" y="1309"/>
      <point x="375" y="1524"/>
      <point x="534" y="1524" type="qcurve" smooth="yes"/>
      <point x="625" y="1524"/>
      <point x="748" y="1506"/>
      <point x="772" y="1497" type="qcurve"/>
      <point x="774" y="1383" type="line"/>
      <point x="626" y="1396"/>
      <point x="451" y="1269"/>
      <point x="451" y="1152" type="qcurve" smooth="yes"/>
      <point x="451" y="1044"/>
      <point x="560" y="880"/>
      <point x="761" y="796" type="qcurve" smooth="yes"/>
      <point x="938" y="722"/>
      <point x="1157" y="544"/>
      <point x="1157" y="373" type="qcurve" smooth="yes"/>
      <point x="1157" y="216"/>
      <point x="971" y="-20"/>
      <point x="837" y="-20" type="qcurve" smooth="yes"/>
      <point x="732" y="-20"/>
      <point x="569" y="82"/>
      <point x="524" y="146" type="qcurve"/>
      <point x="470" y="0" type="line"/>
      <point x="366" y="0" type="line"/>
      <point x="366" y="484" type="line"/>
      <point x="482" y="484" type="line"/>
      <point x="500" y="379" type="line" smooth="yes"/>
      <point x="524" y="234"/>
      <point x="713" y="102"/>
      <point x="838" y="102" type="qcurve" smooth="yes"/>
      <point x="957" y="102"/>
      <point x="1115" y="244"/>
      <point x="1115" y="375" type="qcurve" smooth="yes"/>
      <point x="1115" y="511"/>
      <point x="959" y="678"/>
      <point x="746" y="763" type="qcurve" smooth="yes"/>
      <point x="560" y="837"/>
      <point x="414" y="1023"/>
      <point x="414" y="1134" type="qcurve" smooth="yes"/>
      <point x="414" y="1228"/>
      <point x="478" y="1343"/>
      <point x="531" y="1382" type="qcurve"/>
      <point x="449" y="1382" type="line" smooth="yes"/>
      <point x="320" y="1382"/>
      <point x="195" y="1227"/>
      <point x="194" y="1019" type="qcurve" smooth="yes"/>
      <point x="192" y="760" type="line"/>
      <point x="194" y="-368" type="line"/>
      <point x="402" y="-400" type="line"/>
      <point x="402" y="-500" type="line"/>
      <point x="-24" y="-500" type="line"/>
      <point x="-24" y="-400" type="line"/>
      <point x="154" y="-363" type="line"/>
    </contour>
  </outline>
</glyph>
<glyph name="quoteright" format="2">
  <advance width="600"/>
  <unicode hex="2019"/>
  <outline>
    <contour>
      <point x="154.0" y="1064.0" type="line"/>
      <point x="190.0" y="1092.0"/>
      <point x="289.0" y="1194.0"/>
      <point x="306.0" y="1258.0" type="qcurve" smooth="yes"/>
      <point x="316.0" y="1296.0"/>
      <point x="323.0" y="1350.0"/>
      <point x="323.0" y="1405.0" type="qcurve" smooth="yes"/>
      <point x="323.0" y="1459.0"/>
      <point x="338.0" y="1530.0"/>
      <point x="377.0" y="1530.0" type="qcurve" smooth="yes"/>
      <point x="410.0" y="1530.0"/>
      <point x="438.0" y="1467.0"/>
      <point x="438.0" y="1395.0" type="qcurve" smooth="yes"/>
      <point x="438.0" y="1281.0"/>
      <point x="293.0" y="1066.0"/>
      <point x="201.0" y="1011.0" type="qcurve"/>
    </contour>
  </outline>
</glyph>
<glyph name="quotesinglbase" format="2">
  <advance width="600"/>
  <unicode hex="201A"/>
  <outline>
    <contour>
      <point x="133" y="-223" type="line"/>
      <point x="172" y="-196"/>
      <point x="282" y="-92"/>
      <point x="301" y="-27" type="qcurve" smooth="yes"/>
      <point x="312" y="11"/>
      <point x="319" y="55"/>
      <point x="319" y="111" type="qcurve" smooth="yes"/>
      <point x="319" y="166"/>
      <point x="336" y="227"/>
      <point x="372" y="227" type="qcurve" smooth="yes"/>
      <point x="416" y="227"/>
      <point x="447" y="164"/>
      <point x="447" y="91" type="qcurve" smooth="yes"/>
      <point x="447" y="-24"/>
      <point x="286" y="-221"/>
      <point x="185" y="-277.0" type="qcurve"/>
    </contour>
  </outline>
</glyph>
<glyph name="euro" format="2">
  <advance width="959"/>
  <unicode hex="20AC"/>
  <outline>
    <contour>
      <point x="210" y="746" type="qcurve" smooth="yes"/>
      <point x="210" y="1131"/>
      <point x="451" y="1520"/>
      <point x="617" y="1520" type="qcurve" smooth="yes"/>
      <point x="684" y="1520"/>
      <point x="831" y="1456"/>
      <point x="893" y="1378" type="qcurve"/>
      <point x="826" y="1301" type="line"/>
      <point x="764" y="1359"/>
      <point x="677" y="1390"/>
      <point x="607" y="1390" type="qcurve" smooth="yes"/>
      <point x="440" y="1390"/>
      <point x="245" y="1106"/>
      <point x="246" y="772" type="qcurve" smooth="yes"/>
      <point x="247" y="450"/>
      <point x="453" y="83"/>
      <point x="627" y="83" type="qcurve" smooth="yes"/>
      <point x="676" y="83"/>
      <point x="798" y="121"/>
      <point x="867" y="198" type="qcurve"/>
      <point x="922" y="133" type="line"/>
      <point x="856" y="36"/>
      <point x="693" y="-30"/>
      <point x="642" y="-30" type="qcurve" smooth="yes"/>
      <point x="446" y="-30"/>
      <point x="210" y="374"/>
    </contour>
    <contour>
      <point x="70" y="858" type="line"/>
      <point x="94" y="994" type="line"/>
      <point x="754" y="994" type="line"/>
      <point x="784" y="858" type="line"/>
    </contour>
    <contour>
      <point x="53" y="531" type="line"/>
      <point x="49" y="667" type="line"/>
      <point x="773" y="667" type="line"/>
      <point x="743" y="531" type="line"/>
    </contour>
  </outline>
</glyph>
<glyph name="liraTurkish" format="2">
  <advance width="1118"/>
  <unicode hex="20BA"/>
  <outline>
    <contour>
      <point x="278" y="-29" type="line"/>
      <point x="237" y="8" type="line"/>
      <point x="372" y="132" type="line"/>
      <point x="372" y="674" type="line"/>
      <point x="372" y="1352" type="line"/>
      <point x="194" y="1366" type="line"/>
      <point x="194" y="1500" type="line"/>
      <point x="288" y="1503" type="line"/>
      <point x="638" y="1520" type="line"/>
      <point x="651" y="1401" type="line"/>
      <point x="412" y="1342" type="line"/>
      <point x="409" y="677" type="line"/>
      <point x="407" y="159" type="line"/>
      <point x="447" y="132" type="line"/>
      <point x="610" y="181"/>
      <point x="886" y="369"/>
      <point x="935" y="564" type="qcurve" smooth="yes"/>
      <point x="984" y="758" type="line"/>
      <point x="1106" y="758" type="line"/>
      <point x="1055" y="400" type="line"/>
      <point x="942" y="246"/>
      <point x="560" y="18"/>
      <point x="403" y="-8" type="qcurve" smooth="yes"/>
    </contour>
    <contour>
      <point x="122" y="479" type="line"/>
      <point x="86" y="612" type="line"/>
      <point x="391" y="726" type="line"/>
      <point x="391" y="722" type="line"/>
      <point x="736" y="891" type="line"/>
      <point x="721" y="724" type="line"/>
      <point x="390" y="584" type="line"/>
      <point x="390" y="580" type="line"/>
    </contour>
    <contour>
      <point x="124" y="799" type="line"/>
      <point x="88" y="935" type="line"/>
      <point x="394" y="1049" type="line"/>
      <point x="394" y="1046" type="line"/>
      <point x="788" y="1221" type="line"/>
      <point x="769" y="1046" type="line"/>
      <point x="393" y="902" type="line"/>
      <point x="393" y="900" type="line"/>
    </contour>
  </outline>
</glyph>
<glyph name="fl" format="2">
  <advance width="1003"/>
  <unicode hex="FB02"/>
  <outline>
    <contour>
      <point x="54" y="0" type="line"/>
      <point x="54" y="80" type="line"/>
      <point x="222" y="115" type="line"/>
      <point x="224" y="527" type="line"/>
      <point x="221" y="860" type="line"/>
      <point x="68" y="872" type="line"/>
      <point x="58" y="966" type="line"/>
      <point x="223" y="984" type="line"/>
      <point x="214" y="1304" type="line" smooth="yes"/>
      <point x="211" y="1399"/>
      <point x="306" y="1518"/>
      <point x="375" y="1518" type="qcurve" smooth="yes"/>
      <point x="398" y="1518"/>
      <point x="451" y="1511"/>
      <point x="471" y="1504" type="qcurve" smooth="yes"/>
      <point x="543" y="1488" type="line"/>
      <point x="723" y="1534" type="line"/>
      <point x="760" y="1532" type="line"/>
      <point x="783" y="1501" type="line"/>
      <point x="777" y="527" type="line"/>
      <point x="779" y="115" type="line"/>
      <point x="937" y="80" type="line"/>
      <point x="937" y="0" type="line"/>
      <point x="594" y="0" type="line"/>
      <point x="594" y="80" type="line"/>
      <point x="739" y="115" type="line"/>
      <point x="741" y="527" type="line"/>
      <point x="739" y="1376" type="line"/>
      <point x="452" y="1403" type="line" smooth="yes"/>
      <point x="436" y="1405"/>
      <point x="413" y="1406"/>
      <point x="397" y="1406" type="qcurve" smooth="yes"/>
      <point x="328" y="1406"/>
      <point x="255" y="1342"/>
      <point x="256" y="1269" type="qcurve" smooth="yes"/>
      <point x="258" y="985" type="line"/>
      <point x="534" y="985" type="line"/>
      <point x="534" y="883" type="line"/>
      <point x="258" y="872" type="line"/>
      <point x="260" y="527" type="line"/>
      <point x="274" y="115" type="line"/>
      <point x="443" y="80" type="line"/>
      <point x="443" y="0" type="line"/>
    </contour>
  </outline>
</glyph>
